<?xml version="1.0" encoding="UTF-8" standalone="no"?>
<svg
   xmlns:dc="http://purl.org/dc/elements/1.1/"
   xmlns:cc="http://web.resource.org/cc/"
   xmlns:rdf="http://www.w3.org/1999/02/22-rdf-syntax-ns#"
   xmlns:svg="http://www.w3.org/2000/svg"
   xmlns="http://www.w3.org/2000/svg"
   xmlns:sodipodi="http://inkscape.sourceforge.net/DTD/sodipodi-0.dtd"
   xmlns:inkscape="http://www.inkscape.org/namespaces/inkscape"
   width="29.999998cm"
   height="266.28pt"
   id="svg2"
   sodipodi:version="0.32"
   inkscape:version="0.43"
   sodipodi:docname="latexe_logo.svg"
   sodipodi:docbase="/home/alejo"
   version="1.0">
  <metadata
     id="metadata29">
    <rdf:RDF>
      <cc:Work
         rdf:about="">
        <dc:format>image/svg+xml</dc:format>
        <dc:type
           rdf:resource="http://purl.org/dc/dcmitype/StillImage" />
      </cc:Work>
    </rdf:RDF>
  </metadata>
  <sodipodi:namedview
     inkscape:cy="417.84947"
     inkscape:cx="305.25953"
     inkscape:zoom="0.43415836"
     inkscape:window-height="767"
     inkscape:window-width="1214"
     inkscape:pageshadow="2"
     inkscape:pageopacity="0.0"
     borderopacity="1.0"
     bordercolor="#666666"
     pagecolor="#ffffff"
     id="base"
     inkscape:window-x="0"
     inkscape:window-y="0"
     inkscape:current-layer="svg2" />
  <defs
     id="defs4">
    <marker
       id="ArrowEnd"
       viewBox="0 0 10 10"
       refX="0"
       refY="5"
       markerUnits="strokeWidth"
       markerWidth="4"
       markerHeight="3"
       orient="auto">
      <path
         d="M 0,0 L 10,5 L 0,10 L 0,0 z "
         id="path7" />
    </marker>
    <marker
       id="ArrowStart"
       viewBox="0 0 10 10"
       refX="10"
       refY="5"
       markerUnits="strokeWidth"
       markerWidth="4"
       markerHeight="3"
       orient="auto">
      <path
         d="M 10,0 L 0,5 L 10,10 L 10,0 z "
         id="path10" />
    </marker>
  </defs>
  <g
     id="g12"
     transform="matrix(12.50553,0,0,12.50553,9.213228,18.42646)">
    <path
       style="fill:#000000;stroke:none"
       d="M 12.16,11.125 L 11.715,11.125 C 11.519,13.598 11.199,16.793 6.96901,16.793 L 4.672,16.793 C 3.68301,16.793 3.637,16.672 3.637,15.824 L 3.637,2.242 C 3.637,1.34802 3.68301,1.09802 5.555,1.09802 L 6.094,1.09802 L 6.094,0.5 C 5.078,0.546997 3.89,0.546997 2.875,0.546997 C 2.109,0.546997 0.719002,0.546997 0,0.5 L 0,1.09802 C 1.75401,1.09802 2.035,1.09802 2.035,2.21497 L 2.035,15.672 C 2.035,16.789 1.758,16.789 0,16.789 L 0,17.387 L 11.574,17.387"
       id="path14" />
    <path
       style="fill:#000000;stroke:none"
       d="M 12.328,0.328003 C 12.226,0.059021 12.183,0 11.98,0 C 11.777,0 11.734,0.059021 11.633,0.328003 L 7.254,12.746 C 6.86301,13.864 6.035,14.09 5.312,14.09 L 5.312,14.59 C 5.68301,14.551 6.508,14.551 6.90201,14.551 C 7.418,14.551 8.242,14.551 8.73801,14.59 L 8.73801,14.09 C 7.769,14.051 7.625,13.379 7.625,13.129 C 7.625,12.942 7.664,12.836 7.707,12.711 L 8.80101,9.59399 L 14.211,9.59399 L 15.449,13.149 C 15.551,13.399 15.551,13.442 15.551,13.524 C 15.551,14.086 14.664,14.086 14.273,14.086 L 14.273,14.586 C 14.871,14.547 15.945,14.547 16.586,14.547 C 17.121,14.547 18.152,14.547 18.648,14.586 L 18.648,14.086 C 17.555,14.086 17.183,14.086 16.914,13.321 L 12.328,0.328003 z M 11.5,1.96899 L 14.019,9.09399 L 8.98,9.09399"
       id="path16" />
    <path
       style="fill:#000000;stroke:none"
       d="M 31.246,0.539001 L 16.945,0.539001 L 16.527,6.01599 L 16.973,6.01599 C 17.293,1.914 17.644,1.19598 21.484,1.19598 C 21.93,1.19598 22.652,1.19598 22.851,1.19598 C 23.324,1.27002 23.324,1.57098 23.324,2.14099 L 23.324,15.621 C 23.324,16.516 23.25,16.789 21.164,16.789 L 20.461,16.789 L 20.461,17.387 C 21.648,17.364 22.887,17.34 24.101,17.34 C 25.312,17.34 26.555,17.364 27.742,17.387 L 27.742,16.789 L 27.051,16.789 C 24.996,16.789 24.922,16.516 24.922,15.621 L 24.922,2.14099 C 24.922,1.59399 24.922,1.297 25.367,1.19598 C 25.562,1.19598 26.281,1.19598 26.726,1.19598 C 30.516,1.19598 30.887,1.90997 31.207,6.01599 L 31.652,6.01599"
       id="path18" />
    <path
       style="fill:#000000;stroke:none"
       d="M 43.57,16.524 L 43.125,16.524 C 42.582,20.196 42.262,22.192 37.906,22.192 L 34.469,22.192 C 33.48,22.192 33.433,22.067 33.433,21.215 L 33.433,14.293 L 35.769,14.293 C 38.105,14.293 38.328,15.149 38.328,17.239 L 38.726,17.239 L 38.726,10.797 L 38.328,10.797 C 38.328,12.852 38.105,13.692 35.769,13.692 L 33.433,13.692 L 33.433,7.55499 C 33.433,6.71899 33.48,6.59399 34.469,6.59399 L 37.855,6.59399 C 41.687,6.59399 42.133,8.117 42.48,11.391 L 42.926,11.391 L 42.332,5.914 L 29.793,5.914 L 29.793,6.59399 C 31.547,6.59399 31.828,6.59399 31.828,7.70697 L 31.828,21.071 C 31.828,22.184 31.551,22.184 29.793,22.184 L 29.793,22.782 L 42.68,22.782"
       id="path20" />
    <path
       style="fill:#000000;stroke:none"
       d="M 50.246,8.01599 L 53.91,2.71899 C 54.277,2.19897 55.023,1.12897 57.055,1.10199 L 57.055,0.503967 C 56.488,0.550964 55.547,0.550964 54.953,0.550964 C 54.137,0.550964 53.121,0.550964 52.504,0.503967 L 52.504,1.10199 C 53.297,1.17596 53.492,1.672 53.492,2.07098 C 53.492,2.367 53.371,2.56702 53.195,2.81299 L 49.926,7.55499 L 46.262,2.19202 C 46.09,1.922 46.066,1.84399 46.066,1.77002 C 46.066,1.547 46.336,1.125 47.156,1.10199 L 47.156,0.503967 C 46.363,0.550964 45.152,0.550964 44.336,0.550964 C 43.695,0.550964 42.457,0.550964 41.859,0.503967 L 41.859,1.10199 C 43.219,1.10199 43.664,1.15302 44.211,1.922 L 48.988,8.93799 L 44.68,15.231 C 43.617,16.77 42.008,16.797 41.535,16.797 L 41.535,17.395 C 42.101,17.348 43.043,17.348 43.637,17.348 C 44.305,17.348 45.469,17.348 46.086,17.395 L 46.086,16.797 C 45.32,16.723 45.098,16.227 45.098,15.828 C 45.098,15.508 45.219,15.332 45.344,15.156 L 49.305,9.375 L 53.613,15.707 C 53.808,15.981 53.808,16.055 53.808,16.129 C 53.808,16.324 53.586,16.75 52.719,16.801 L 52.719,17.399 C 53.512,17.352 54.723,17.352 55.539,17.352 C 56.18,17.352 57.418,17.352 58.019,17.399 L 58.019,16.801 C 56.433,16.801 56.183,16.68 55.691,15.981"
       id="path22" />
    <path
       style="fill:#000000;stroke:none"
       d="M 72.125,13.555 L 71.683,13.555 C 71.437,15.34 71.242,15.645 71.14,15.793 C 71.019,15.992 69.242,15.992 68.898,15.992 L 64.164,15.992 C 65.051,15.024 66.777,13.258 68.875,11.219 C 70.379,9.77802 72.129,8.086 72.129,5.625 C 72.129,2.69202 69.805,1 67.207,1 C 64.488,1 62.832,3.39099 62.832,5.61401 C 62.832,6.57397 63.547,6.69897 63.844,6.69897 C 64.09,6.69897 64.828,6.55499 64.828,5.68799 C 64.828,4.922 64.195,4.703 63.855,4.703 C 63.711,4.703 63.566,4.73901 63.469,4.80902 C 63.937,2.664 65.367,1.60199 66.875,1.60199 C 69.019,1.60199 70.43,3.32098 70.43,5.58197 C 70.43,7.742 69.168,9.60999 67.758,11.227 L 62.836,16.821 L 62.836,17.391 L 71.539,17.391"
       id="path24" />
    <path
       style="fill:#000000;stroke:none"
       d="M 76.664,15.446 C 77.457,15.797 78.301,15.797 78.773,15.797 C 79.418,15.797 80.711,15.797 80.711,15.047 C 80.711,14.582 80.246,14.403 78.992,14.403 C 78.379,14.403 77.644,14.481 76.781,14.879 C 76.023,14.512 75.726,13.949 75.726,13.406 C 75.726,11.887 78.14,11.004 80.332,11.004 C 80.75,11.004 81.637,11.004 82.672,11.739 C 82.816,11.832 82.89,11.903 83.062,11.903 C 83.355,11.903 83.68,11.582 83.68,11.285 C 83.68,10.84 82.242,9.90302 80.531,9.90302 C 77.754,9.90302 75.125,11.559 75.125,13.391 C 75.125,14.305 75.723,14.871 76.148,15.168 C 74.683,15.981 73.828,17.317 73.828,18.532 C 73.828,20.235 75.371,21.598 77.762,21.598 C 81.047,21.598 82.367,19.434 82.367,19.09 C 82.367,18.969 82.269,18.871 82.144,18.871 C 82.023,18.871 81.973,18.942 81.875,19.086 C 81.605,19.539 80.957,20.5 78.004,20.5 C 76.469,20.5 74.43,20.11 74.43,18.367 C 74.43,17.535 75.047,16.285 76.664,15.449 L 76.664,15.446 z M 77.441,15.153 C 78.109,14.899 78.754,14.899 78.926,14.899 C 79.617,14.899 79.742,14.953 80.137,15.067 C 79.719,15.293 79.668,15.293 78.777,15.293 C 78.332,15.293 77.937,15.293 77.441,15.153"
       id="path26" />
  </g>
</svg>
